<svg xmlns="http://www.w3.org/2000/svg" xmlns:xlink="http://www.w3.org/1999/xlink" width="202" height="75" viewBox="0 0 202 75">
  <defs>
    <clipPath id="clip-path">
      <rect id="Rectangle_367" data-name="Rectangle 367" width="202" height="75" transform="translate(125 42)" fill="#fff" stroke="#707070" stroke-width="1"/>
    </clipPath>
  </defs>
  <g id="logo_front" data-name="logo front" transform="translate(-125 -42)">
    <g id="Mask_Group_10" data-name="Mask Group 10" clip-path="url(#clip-path)">
      <path id="Lab" d="M76.078,0V-34.312H85.43v26.3H97.055V0Zm43.008-11.859a6.252,6.252,0,0,0-1.477-4.383,5.187,5.187,0,0,0-4.031-1.617,5.169,5.169,0,0,0-4.02,1.605,6.274,6.274,0,0,0-1.465,4.395A6.165,6.165,0,0,0,109.57-7.5a5.2,5.2,0,0,0,4.008,1.594A5.226,5.226,0,0,0,117.609-7.5,6.165,6.165,0,0,0,119.086-11.859Zm7.336-11.812V0h-7.664V-3.844a10.992,10.992,0,0,1-3.691,3.609A9.7,9.7,0,0,1,110.25.914a9.294,9.294,0,0,1-7.57-3.457Q99.844-6,99.844-11.812q0-5.789,2.965-9.2a10.038,10.038,0,0,1,7.98-3.41,8.928,8.928,0,0,1,4.605,1.137,9.471,9.471,0,0,1,3.316,3.5v-3.891ZM140.18-11.812a6.258,6.258,0,0,0,1.441,4.359,5.085,5.085,0,0,0,3.973,1.594A5.171,5.171,0,0,0,149.6-7.441a6.218,6.218,0,0,0,1.453-4.371,6.2,6.2,0,0,0-1.465-4.359,5.159,5.159,0,0,0-4-1.594,5.085,5.085,0,0,0-3.973,1.594A6.258,6.258,0,0,0,140.18-11.812Zm-7.406-24.516h7.969v12.375q0,1.5-.059,2.5t-.176,1.723a9.372,9.372,0,0,1,3.34-3.609,9.834,9.834,0,0,1,4.91-1.078,9.57,9.57,0,0,1,7.676,3.48,13.663,13.663,0,0,1,2.941,9.129q0,5.836-2.965,9.281A9.938,9.938,0,0,1,148.477.914a8.509,8.509,0,0,1-4.43-1.184,11.388,11.388,0,0,1-3.586-3.574V0h-7.687Z" transform="translate(122 88)" fill="#5271ff"/>
      <path id="Fin" d="M3.656,0V-34.312H24.68v7.523H12.773v5.953H24v7.359H12.773V0ZM28.992-31.055a4.386,4.386,0,0,1,1.348-3.234,4.444,4.444,0,0,1,3.246-1.336,4.491,4.491,0,0,1,3.293,1.313A4.4,4.4,0,0,1,38.2-31.055a4.518,4.518,0,0,1-1.348,3.3,4.433,4.433,0,0,1-3.27,1.359,4.381,4.381,0,0,1-3.234-1.383A4.522,4.522,0,0,1,28.992-31.055ZM29.414,0V-23.672h8.367V0ZM44.156,0V-23.672H51.8v4.8a11.569,11.569,0,0,1,3.844-4.219,9.81,9.81,0,0,1,5.227-1.336,10.665,10.665,0,0,1,4.09.738,7.229,7.229,0,0,1,2.918,2.121,7.332,7.332,0,0,1,1.336,2.906,24.276,24.276,0,0,1,.4,5.109V0H61.242V-12.68a7.186,7.186,0,0,0-.926-4.125,3.4,3.4,0,0,0-2.965-1.289,4.14,4.14,0,0,0-3.8,1.922q-1.2,1.922-1.2,6.234V0Z" transform="translate(122 88)" fill="#02bd64"/>
      <path id="tagline" d="M9.675-11.226a1.007,1.007,0,0,1-.013.13,1.406,1.406,0,0,1-.033.163,4.769,4.769,0,0,1-.483.826q-.316.446-.7.926t-.793.976q-.41.5-.756.976-.14.193-.256.383t-.3.483l-.14.226-.183.3q-.1.157-.2.306t-.18.256q-.053.866-.093,1.769T5.451-1.654q-.033.486-.047.776a2.3,2.3,0,0,1-.033.363.649.649,0,0,1-.33.446,1.246,1.246,0,0,1-.616.147.56.56,0,0,1-.3-.087.971.971,0,0,1-.243-.213,1.094,1.094,0,0,1-.163-.27.687.687,0,0,1-.06-.263q0-.113.013-.313t.037-.443q.023-.243.047-.513t.05-.523q.027-.253.05-.47t.037-.35q.067-.653.1-1.082t.033-.643a1.19,1.19,0,0,0-.02-.22A.934.934,0,0,0,3.953-5.5a3.748,3.748,0,0,1-.633-.476q-.306-.283-.58-.583-.073-.087-.193-.223l-.253-.29q-.133-.153-.266-.313t-.24-.293l-.173-.216a.382.382,0,0,1-.067-.1q-.233-.273-.45-.5t-.38-.416Q.555-9.095.455-9.235a.433.433,0,0,1-.1-.226.448.448,0,0,1,.107-.256,1.079,1.079,0,0,1,.346-.276,1.143,1.143,0,0,1,.353-.137,1.644,1.644,0,0,1,.253-.023.776.776,0,0,1,.38.1,2.044,2.044,0,0,1,.406.313,5.971,5.971,0,0,1,.48.526q.26.316.593.736.586.739,1.009,1.172a2.039,2.039,0,0,0,.643.506q-.013-.007.087-.16t.273-.4q.173-.246.4-.56l.46-.643L6.6-9.2q.226-.313.4-.563l.286-.4a1.94,1.94,0,0,0,.11-.16q.16-.213.326-.44t.34-.473l.167-.25a.869.869,0,0,1,.16-.183.6.6,0,0,1,.193-.11.781.781,0,0,1,.253-.037,1.025,1.025,0,0,1,.5.113.622.622,0,0,1,.246.21A.48.48,0,0,1,9.675-11.226ZM17.962-6.11a.541.541,0,0,1-.083.27,1.706,1.706,0,0,1-.213.286,3.032,3.032,0,0,1-.3.283q-.167.14-.333.256t-.316.2q-.15.087-.25.133a2.978,2.978,0,0,1-.463.137q-.283.063-.593.107t-.6.07q-.29.027-.49.027a1.163,1.163,0,0,1-.13-.01q-.083-.01-.18-.03t-.193-.05a.586.586,0,0,1-.163-.077.883.883,0,0,1,.083.336q.01.183.01.363a2.01,2.01,0,0,1-.027.3q-.027.173-.07.353a3.307,3.307,0,0,1-.1.346,1.676,1.676,0,0,1-.127.28A4.448,4.448,0,0,1,13.069-2a3.486,3.486,0,0,1-.423.446,3.746,3.746,0,0,1-.526.386,5.984,5.984,0,0,1-.679.353,3.551,3.551,0,0,1-.826.25,5.1,5.1,0,0,1-.853.07,1.016,1.016,0,0,1-.58-.17,1.429,1.429,0,0,1-.426-.456,2.314,2.314,0,0,1-.263-.659A3.315,3.315,0,0,1,8.4-2.56a2.335,2.335,0,0,1,.017-.25q.017-.15.047-.3t.067-.3q.037-.147.07-.246a5.252,5.252,0,0,1,.27-.639,7.627,7.627,0,0,1,.416-.736,8.146,8.146,0,0,1,.533-.739,4.929,4.929,0,0,1,.623-.646,3.206,3.206,0,0,1,.686-.456,1.625,1.625,0,0,1,.716-.173.827.827,0,0,1,.246.03.453.453,0,0,1,.153.08.759.759,0,0,1,.11.113,1.41,1.41,0,0,0,.11.123.677.677,0,0,1,.1-.02.781.781,0,0,1,.1-.007.647.647,0,0,1,.406.16q.2.16.406.353l.19.177q.1.09.177.16a1.568,1.568,0,0,0,.143.113.2.2,0,0,0,.09.043q.173,0,.376,0t.413-.013q.21-.01.406-.03t.356-.047q.02-.007.173-.043t.37-.093l.47-.123.47-.123q.216-.057.373-.093a1.455,1.455,0,0,1,.183-.037.564.564,0,0,1,.213.033Q17.962-6.264,17.962-6.11ZM10.274-1.667a1.646,1.646,0,0,0,.956-.286,2.426,2.426,0,0,0,.7-.763A4.048,4.048,0,0,0,12.376-3.8a5.247,5.247,0,0,0,.163-1.256.945.945,0,0,0-.137-.207,1.177,1.177,0,0,0-.2-.19,1.252,1.252,0,0,0-.233-.137.547.547,0,0,0-.22-.053.628.628,0,0,0-.346.127q-.187.127-.346.26a1.906,1.906,0,0,0-.316.35,3.474,3.474,0,0,0-.29.483q-.133.266-.246.563t-.193.586a5.153,5.153,0,0,0-.123.563,3.143,3.143,0,0,0-.043.486.649.649,0,0,0,.033.207.682.682,0,0,0,.09.18.435.435,0,0,0,.137.127A.338.338,0,0,0,10.274-1.667ZM28.52-6.21a.438.438,0,0,1-.013.107.6.6,0,0,1-.047.12,11.116,11.116,0,0,1-.566.993q-.326.513-.709,1t-.8.929a7.808,7.808,0,0,1-.843.769,4.407,4.407,0,0,1-.836.523,1.857,1.857,0,0,1-.786.193,2,2,0,0,1-.7-.117,1.363,1.363,0,0,1-.55-.376,1.805,1.805,0,0,1-.363-.666,3.265,3.265,0,0,1-.13-.986q-.107.173-.256.39t-.32.436q-.17.22-.353.426a3.677,3.677,0,0,1-.363.36q-.16.14-.4.336a4.422,4.422,0,0,1-.54.38,3.975,3.975,0,0,1-.669.32,2.59,2.59,0,0,1-.786.157,1.673,1.673,0,0,1-.863-.19,1.265,1.265,0,0,1-.476-.486,1.829,1.829,0,0,1-.2-.656,5.853,5.853,0,0,1-.043-.7q0-.033.01-.187t.033-.38q.023-.226.067-.51t.107-.59q.063-.306.15-.613a5.215,5.215,0,0,1,.2-.58q.06-.14.117-.256a.887.887,0,0,1,.13-.2A.585.585,0,0,1,17.9-6.4a.656.656,0,0,1,.266-.06.749.749,0,0,1,.343.07.649.649,0,0,1,.22.177.635.635,0,0,1,.117.24,1.069,1.069,0,0,1,.033.26,1.278,1.278,0,0,1-.09.353q-.09.253-.2.626t-.2.853a5.6,5.6,0,0,0-.09,1.033A.894.894,0,0,0,18.4-2.4a.278.278,0,0,0,.246.163,1.328,1.328,0,0,0,.416-.067,2.308,2.308,0,0,0,.4-.173,3.284,3.284,0,0,0,.376-.243q.183-.137.35-.276a4.507,4.507,0,0,0,.436-.426q.236-.26.463-.55t.42-.57a5.738,5.738,0,0,0,.306-.486q.06-.107.14-.283t.153-.37q.073-.193.133-.37t.087-.283q.02-.093.037-.163t.033-.143q.017-.073.043-.153t.067-.18a.468.468,0,0,1,.1-.143.967.967,0,0,1,.17-.14,1.134,1.134,0,0,1,.207-.107.572.572,0,0,1,.21-.043.6.6,0,0,1,.46.17.638.638,0,0,1,.173.416q-.027.133-.09.443t-.13.693q-.067.383-.113.793a6.67,6.67,0,0,0-.047.749,2.146,2.146,0,0,0,.163.923.506.506,0,0,0,.463.336,1.078,1.078,0,0,0,.476-.123,3.066,3.066,0,0,0,.516-.33,5.7,5.7,0,0,0,.536-.476q.27-.27.533-.57t.506-.606q.243-.306.456-.58a7.9,7.9,0,0,1,.56-.663.71.71,0,0,1,.493-.263.524.524,0,0,1,.1.013.439.439,0,0,1,.123.047.352.352,0,0,1,.1.087A.215.215,0,0,1,28.52-6.21Zm4.756.393a.615.615,0,0,1-.173.45.582.582,0,0,1-.433.177.757.757,0,0,1-.323-.067,1.765,1.765,0,0,1-.263-.15q-.12-.083-.223-.15a.383.383,0,0,0-.21-.067.53.53,0,0,0-.26.08,1.762,1.762,0,0,0-.293.216,4.247,4.247,0,0,0-.316.316q-.163.18-.323.38-.113.14-.253.336t-.28.41q-.14.213-.266.433t-.22.406q-.08.167-.177.386t-.18.446q-.083.226-.15.433a2.171,2.171,0,0,0-.087.346q-.04.26-.08.48a1.651,1.651,0,0,1-.11.376.6.6,0,0,1-.187.243.519.519,0,0,1-.316.087.815.815,0,0,1-.54-.153.84.84,0,0,1-.256-.393,2.036,2.036,0,0,1-.09-.526q-.013-.286-.04-.553-.02-.173-.033-.346t-.023-.363q-.01-.19-.017-.406t-.007-.476q0-.34.027-.759t.063-.806q.037-.386.08-.686a2.805,2.805,0,0,1,.077-.4,1.536,1.536,0,0,1,.18-.343,1.652,1.652,0,0,1,.25-.286,1.243,1.243,0,0,1,.286-.2.658.658,0,0,1,.29-.073,1.03,1.03,0,0,1,.256.033.634.634,0,0,1,.233.113.615.615,0,0,1,.17.21.7.7,0,0,1,.067.323.561.561,0,0,1-.033.15q-.033.1-.087.3t-.133.48q-.073.273-.137.56t-.11.566a3.77,3.77,0,0,0-.053.5q.033-.073.12-.243l.183-.36q.1-.19.19-.366t.14-.256q.193-.326.446-.693a4.4,4.4,0,0,1,.576-.676,2.96,2.96,0,0,1,.729-.513,1.968,1.968,0,0,1,.893-.2,1.7,1.7,0,0,1,.643.11,1.269,1.269,0,0,1,.443.29,1.15,1.15,0,0,1,.256.41A1.369,1.369,0,0,1,33.276-5.817ZM42.416-8.8a2.545,2.545,0,0,1-.037.33,2.68,2.68,0,0,1-.183.59q-.113.286-.18.486a1.813,1.813,0,0,0-.08.3q-.12.759-.23,1.632t-.243,1.892q-.033.28-.07.583t-.063.57q-.027.266-.043.47t-.017.276a.409.409,0,0,0,.027.13q.027.077.06.157t.06.153a.38.38,0,0,1,.027.127.585.585,0,0,1-.093.306,1.039,1.039,0,0,1-.306.3,1.411,1.411,0,0,1-.346.19,1.3,1.3,0,0,1-.346.077.713.713,0,0,1-.5-.16.969.969,0,0,1-.26-.38,1.529,1.529,0,0,1-.1-.46q-.013-.24-.013-.4,0-.32.017-.61t.05-.57q.053-.453.153-1.059t.213-1.286l.063-.34.1-.536.12-.639q.063-.336.123-.643t.107-.55q.047-.243.067-.363.04-.22.06-.34t.04-.223q.02-.1.047-.23t.073-.353l-.007.013a.725.725,0,0,1,.08-.236,1.355,1.355,0,0,1,.163-.246.905.905,0,0,1,.22-.193.459.459,0,0,1,.243-.077.828.828,0,0,1,.473.13,1.051,1.051,0,0,1,.31.316,1.321,1.321,0,0,1,.167.4,1.621,1.621,0,0,1,.05.37Zm13.076,3.73a.936.936,0,0,1-.047.276,2.217,2.217,0,0,1-.117.3,2.535,2.535,0,0,1-.153.276A2.056,2.056,0,0,1,55.019-4q-.213.266-.476.566t-.55.593q-.286.293-.586.563a5.269,5.269,0,0,1-.6.47q-.233.16-.45.3a3.955,3.955,0,0,1-.446.243,2.511,2.511,0,0,1-.486.167,2.473,2.473,0,0,1-.563.06,1.577,1.577,0,0,1-.829-.2,1.6,1.6,0,0,1-.536-.533,2.714,2.714,0,0,1-.316-.763,7.442,7.442,0,0,1-.17-.9,7.4,7.4,0,0,0-.193-1q-.107-.37-.26-.37a.575.575,0,0,0-.26.063,1.245,1.245,0,0,0-.316.27,7.284,7.284,0,0,0-.48.6q-.29.4-.756,1.056-.16.226-.39.506t-.483.536a5.413,5.413,0,0,1-.5.453,1.63,1.63,0,0,1-.463.27q-.839-.187-.839-1.605a10.152,10.152,0,0,1,.08-1.059q.04-.313.09-.659t.127-.7q.077-.35.183-.686a4.549,4.549,0,0,1,.246-.623.881.881,0,0,1,.18-.253.758.758,0,0,1,.2-.14.73.73,0,0,1,.216-.06,1.937,1.937,0,0,1,.226-.013.4.4,0,0,1,.193.05.531.531,0,0,1,.167.143.726.726,0,0,1,.117.226.991.991,0,0,1,.043.306,1.564,1.564,0,0,1-.027.293,2.64,2.64,0,0,1-.073.29q-.047.15-.1.316t-.1.38q-.033.14-.1.36t-.127.456q-.063.236-.117.463a2.757,2.757,0,0,0-.067.38q.12-.14.276-.35t.33-.453l.353-.5q.18-.253.36-.48.233-.293.46-.553a3.215,3.215,0,0,1,.476-.45,2.127,2.127,0,0,1,.543-.3,1.867,1.867,0,0,1,.659-.11,1.28,1.28,0,0,1,.706.177,1.265,1.265,0,0,1,.436.49,2.653,2.653,0,0,1,.243.743q.08.43.127.936.027.26.07.533a2.416,2.416,0,0,0,.13.5,1.07,1.07,0,0,0,.226.366.465.465,0,0,0,.346.143,1.646,1.646,0,0,0,.669-.163,4.475,4.475,0,0,0,.763-.45,9.326,9.326,0,0,0,.819-.666q.42-.38.839-.813.133-.14.256-.276t.236-.246a1.342,1.342,0,0,1,.22-.177.4.4,0,0,1,.213-.067.515.515,0,0,1,.093.01.278.278,0,0,1,.1.04.232.232,0,0,1,.077.083A.3.3,0,0,1,55.492-5.065ZM54.373-2.3a5.241,5.241,0,0,1,.037-.616q.037-.31.093-.613t.123-.59q.067-.286.12-.546.073-.346.133-.62a3.235,3.235,0,0,0,.073-.506q-.1.02-.223.037l-.25.033q-.127.017-.246.023t-.2.007a1.841,1.841,0,0,1-.356-.03.552.552,0,0,1-.25-.113.48.48,0,0,1-.147-.233,1.315,1.315,0,0,1-.047-.383A.419.419,0,0,1,53.3-6.7a.5.5,0,0,1,.187-.16.87.87,0,0,1,.26-.083,1.76,1.76,0,0,1,.283-.023q.053,0,.207-.017l.326-.037.34-.04q.167-.02.246-.027.053,0,.1-.08a1.164,1.164,0,0,0,.093-.19q.043-.11.077-.226a1.839,1.839,0,0,0,.047-.2q.033-.18.1-.44t.14-.533q.077-.273.16-.523a2.508,2.508,0,0,1,.163-.4,1.008,1.008,0,0,1,.233-.313.578.578,0,0,1,.38-.107.7.7,0,0,1,.516.167.708.708,0,0,1,.163.513,1.625,1.625,0,0,1-.07.413q-.07.253-.157.543t-.163.586a2.421,2.421,0,0,0-.083.53q.133,0,.386-.027t.533-.063q.28-.037.536-.077t.39-.067l.43-.09.273-.057q.123-.027.266-.063t.4-.11l.16.127a1.013,1.013,0,0,1,.09.077.167.167,0,0,1,.04.057.17.17,0,0,1,.01.06.635.635,0,0,1-.24.476,2.347,2.347,0,0,1-.606.383,5.233,5.233,0,0,1-.8.283q-.43.117-.809.183-.28.047-.5.08t-.39.063a1.894,1.894,0,0,0-.273.067.415.415,0,0,0-.16.09q-.087.3-.2.716t-.21.876q-.1.46-.167.929a6.26,6.26,0,0,0-.067.876,1.092,1.092,0,0,0,.18.686.61.61,0,0,0,.506.226,3.984,3.984,0,0,0,.59-.043,3.072,3.072,0,0,0,.606-.16,4.734,4.734,0,0,0,.673-.316,8.914,8.914,0,0,0,.8-.513q.12-.093.25-.207t.263-.216a1.653,1.653,0,0,1,.273-.173.634.634,0,0,1,.286-.07.32.32,0,0,1,.21.063.24.24,0,0,1,.077.2.6.6,0,0,1-.067.243,1.726,1.726,0,0,1-.187.3,3.583,3.583,0,0,1-.283.33,3.213,3.213,0,0,1-.363.323q-.386.306-.809.583a7.2,7.2,0,0,1-.859.483,5.318,5.318,0,0,1-.876.326,3.305,3.305,0,0,1-.873.12,2.255,2.255,0,0,1-.906-.163,1.683,1.683,0,0,1-.61-.436,1.736,1.736,0,0,1-.346-.623A2.375,2.375,0,0,1,54.373-2.3Zm8.713-3.73A.71.71,0,0,0,63-6.444a.255.255,0,0,0-.2-.12.378.378,0,0,0-.233.12,1.935,1.935,0,0,0-.276.323A4.422,4.422,0,0,0,62-5.648q-.143.27-.266.57a4.895,4.895,0,0,0-.207.616,4.311,4.311,0,0,0-.117.61l.35-.29a3.493,3.493,0,0,0,.3-.276q.14-.14.316-.343t.336-.423a3.128,3.128,0,0,0,.27-.44A.917.917,0,0,0,63.086-6.031Zm5.169.719a.57.57,0,0,1-.04.167,1.478,1.478,0,0,1-.133.266,9.83,9.83,0,0,1-.649.9q-.39.486-.859.969a13.5,13.5,0,0,1-1.006.933,9.952,9.952,0,0,1-1.086.8,6.289,6.289,0,0,1-1.1.556,2.9,2.9,0,0,1-1.039.21,3.133,3.133,0,0,1-1.092-.173,1.972,1.972,0,0,1-.773-.5A2.117,2.117,0,0,1,60.022-2a3.53,3.53,0,0,1-.153-1.082,7.211,7.211,0,0,1,.07-.973A5.288,5.288,0,0,1,60.2-5.095a6.068,6.068,0,0,1,.5-1.066A5.36,5.36,0,0,1,61.507-7.2a2.741,2.741,0,0,1,.819-.586,2.029,2.029,0,0,1,.839-.2.76.76,0,0,1,.187.03,1.333,1.333,0,0,1,.226.083,1.561,1.561,0,0,1,.22.127.756.756,0,0,1,.173.16,2.462,2.462,0,0,1,.32.516,1.356,1.356,0,0,1,.107.55,2.645,2.645,0,0,1-.133.866,3.022,3.022,0,0,1-.363.723,4.552,4.552,0,0,1-.543.649q-.313.313-.673.653a6.314,6.314,0,0,1-.546.45q-.326.243-.7.53a1.616,1.616,0,0,0,.133.356.827.827,0,0,0,.2.25.8.8,0,0,0,.29.15,1.438,1.438,0,0,0,.4.05,2.342,2.342,0,0,0,.669-.107,5.362,5.362,0,0,0,.716-.273,3.767,3.767,0,0,0,.62-.37q.306-.223.62-.463.193-.147.5-.423t.616-.576q.213-.2.426-.39t.453-.423l.353-.346a1.128,1.128,0,0,1,.626-.313q.127,0,.16.073A.338.338,0,0,1,68.255-5.311Zm5.016-.04a.458.458,0,0,1-.223.383,2.132,2.132,0,0,1-.723.27q-.22.053-.423.11a2.351,2.351,0,0,0-.406.157,2.752,2.752,0,0,0-.426.266,4.687,4.687,0,0,0-.5.44,5.854,5.854,0,0,0-.633.763,5.623,5.623,0,0,0-.49.859,6.988,6.988,0,0,0-.36.973,9.061,9.061,0,0,0-.243,1.1.345.345,0,0,1-.047.08q-.02.033-.037.057a.3.3,0,0,1-.03.037.645.645,0,0,1-.256.18.985.985,0,0,1-.343.053.545.545,0,0,1-.4-.143.867.867,0,0,1-.21-.34,1.564,1.564,0,0,1-.08-.4q-.013-.207-.013-.34t.023-.406l.05-.57q.027-.3.05-.613t.023-.543q0-.173-.01-.466t-.02-.626q-.01-.333-.02-.659t-.01-.553a.838.838,0,0,1,.07-.34.923.923,0,0,1,.183-.276.886.886,0,0,1,.263-.187.725.725,0,0,1,.31-.07.793.793,0,0,1,.346.073.774.774,0,0,1,.256.193.842.842,0,0,1,.157.27.918.918,0,0,1,.053.31q0,.073-.01.236t-.027.366q-.017.2-.04.423t-.043.4q-.02.183-.04.313a.77.77,0,0,1-.033.157,7.633,7.633,0,0,1,.666-1.069,4.787,4.787,0,0,1,.793-.839,3.608,3.608,0,0,1,.9-.546,2.5,2.5,0,0,1,.976-.2,1.58,1.58,0,0,1,.326.037,1.051,1.051,0,0,1,.32.123.761.761,0,0,1,.24.22A.567.567,0,0,1,73.271-5.351Zm3.437-.779a1.271,1.271,0,0,0-.03-.28.23.23,0,0,0-.1-.167.818.818,0,0,0-.483.193,2.155,2.155,0,0,0-.49.55,4.188,4.188,0,0,0-.416.859,5.511,5.511,0,0,0-.27,1.116q.313-.233.63-.49a5.314,5.314,0,0,0,.573-.536,2.815,2.815,0,0,0,.42-.59A1.388,1.388,0,0,0,76.709-6.13ZM81.9-4.9a1.168,1.168,0,0,1-.18.44,11.794,11.794,0,0,1-.769.989,11.136,11.136,0,0,1-.9.929,11.209,11.209,0,0,1-1,.816A8.071,8.071,0,0,1,78-1.081a6.159,6.159,0,0,1-1.062.43A3.644,3.644,0,0,1,75.9-.495a2.385,2.385,0,0,1-1.775-.643,2.656,2.656,0,0,1-.636-1.942A7.083,7.083,0,0,1,73.565-4.1a5.4,5.4,0,0,1,.243-.993,5.583,5.583,0,0,1,.443-.963,5.517,5.517,0,0,1,.673-.919,2.513,2.513,0,0,1,.343-.32,2.958,2.958,0,0,1,.42-.273,2.517,2.517,0,0,1,.466-.193,1.667,1.667,0,0,1,.483-.073,1.306,1.306,0,0,1,.61.133,1.223,1.223,0,0,1,.423.356,1.527,1.527,0,0,1,.246.513,2.282,2.282,0,0,1,.08.61,2.172,2.172,0,0,1-.44,1.229,6.986,6.986,0,0,1-1.219,1.3q-.253.213-.586.463L75-2.667a.747.747,0,0,0,.1.313.854.854,0,0,0,.226.256,1.107,1.107,0,0,0,.343.173,1.5,1.5,0,0,0,.453.063,3.131,3.131,0,0,0,.693-.083,5.152,5.152,0,0,0,.726-.223,6.23,6.23,0,0,0,.7-.323,5.807,5.807,0,0,0,.62-.383,11.059,11.059,0,0,0,.949-.763q.456-.41.883-.836l.353-.353a1.039,1.039,0,0,1,.626-.326.191.191,0,0,1,.183.09A.334.334,0,0,1,81.9-4.9Zm5.829-.213a.941.941,0,0,1-.16.45,4.8,4.8,0,0,1-.4.57q-.243.3-.543.61t-.58.583q-.167.16-.493.443t-.729.623q-.4.34-.843.7t-.829.676q-.39.313-.689.546T82.038.4a4.565,4.565,0,0,1-.769.42,1.7,1.7,0,0,1-.636.147,1.526,1.526,0,0,1-.393-.043.831.831,0,0,1-.26-.113.451.451,0,0,1-.147-.16.394.394,0,0,1-.047-.183.963.963,0,0,1,.087-.416,1.063,1.063,0,0,1,.27-.343,2.459,2.459,0,0,1,.466-.31q.283-.15.669-.31.253-.1.456-.193a2.023,2.023,0,0,0,.353-.2.811.811,0,0,0,.23-.25.675.675,0,0,0,.08-.34.5.5,0,0,0-.063-.173q-.063-.127-.163-.293t-.223-.363L81.7-3.11l-.226-.356q-.107-.167-.167-.28a2.152,2.152,0,0,1-.273-1.033,2.835,2.835,0,0,1,.04-.466,2.566,2.566,0,0,1,.133-.486,2.1,2.1,0,0,1,.283-.6,3.151,3.151,0,0,1,.436-.523,2.523,2.523,0,0,1,.483-.37.881.881,0,0,1,.423-.14,1.479,1.479,0,0,1,.393.043.5.5,0,0,1,.236.133.5.5,0,0,1,.117.226,1.41,1.41,0,0,1,.033.33.67.67,0,0,1-.08.313,1.544,1.544,0,0,1-.193.286,2.521,2.521,0,0,1-.24.246q-.127.113-.22.2-.14.127-.266.236a2.512,2.512,0,0,0-.2.19,1.6,1.6,0,0,0,.207.773q.1.173.25.426l.306.516q.157.263.3.5t.22.38a2.3,2.3,0,0,0,.29-.177q.19-.13.443-.313t.543-.41q.29-.226.583-.466t.566-.476q.273-.236.493-.45.187-.18.31-.31t.213-.213a1.222,1.222,0,0,1,.157-.127.263.263,0,0,1,.147-.043.184.184,0,0,1,.143.063.519.519,0,0,1,.09.14.713.713,0,0,1,.047.143A.665.665,0,0,1,87.733-5.118Zm5.755-1a.494.494,0,0,1-.053.23A.793.793,0,0,1,93.3-5.7a1.145,1.145,0,0,1-.177.15q-.1.067-.183.12A5.077,5.077,0,0,1,92.3-5.2q-.343.1-.683.17t-.663.117q-.323.047-.6.08l-.39.043-.4.043-.36.04q-.167.02-.286.04-.147.566-.276,1.086t-.223.979q-.013.08-.04.22t-.057.306q-.03.167-.057.35t-.05.346q-.023.163-.037.293t-.013.2a.56.56,0,0,0,.073.33.918.918,0,0,0,.147.157,1.881,1.881,0,0,1,.223.207.393.393,0,0,1,.09.273.393.393,0,0,1-.093.25.9.9,0,0,1-.233.2,1.421,1.421,0,0,1-.3.14.95.95,0,0,1-.3.053.822.822,0,0,1-.433-.117A1.131,1.131,0,0,1,87.014.3a1.445,1.445,0,0,1-.213-.44,1.767,1.767,0,0,1-.073-.506,7.739,7.739,0,0,1,.067-.966,10.038,10.038,0,0,1,.193-1.059l.117-.513q.063-.28.117-.533t.093-.45l.053-.263q-.14.007-.4.04a5.039,5.039,0,0,1-.623.033,2.959,2.959,0,0,1-.506-.037.787.787,0,0,1-.34-.137A.56.56,0,0,1,85.3-4.8a1.415,1.415,0,0,1-.06-.453.32.32,0,0,1,.113-.256.762.762,0,0,1,.28-.147,1.771,1.771,0,0,1,.346-.067q.18-.017.32-.017.067,0,.233-.017l.363-.033.38-.033q.183-.017.283-.017.033,0,.083-.127a3.066,3.066,0,0,0,.1-.326q.053-.2.11-.443t.11-.48q.053-.236.1-.436t.07-.313a5.69,5.69,0,0,0,.123-.626,3.989,3.989,0,0,1,.15-.656,1.46,1.46,0,0,1,.283-.52.657.657,0,0,1,.523-.21.776.776,0,0,1,.533.157.667.667,0,0,1,.173.516,3.052,3.052,0,0,1-.03.393,2.562,2.562,0,0,1-.1.453q-.16.513-.273.959t-.183.776q-.07.33-.1.516l-.03.187q.273,0,.523,0t.51-.013q.26-.01.543-.03t.616-.06q.386-.047.653-.093t.47-.087q.2-.04.37-.067a2.19,2.19,0,0,1,.346-.027.338.338,0,0,1,.177.05Q93.489-6.3,93.489-6.117Zm2.1,4.257a1.881,1.881,0,0,1-.13.683,2.891,2.891,0,0,1-.343.636,3.407,3.407,0,0,1-.493.553,3.71,3.71,0,0,1-.58.433,3.18,3.18,0,0,1-.6.283,1.724,1.724,0,0,1-.56.1.785.785,0,0,1-.593-.2A.738.738,0,0,1,92.1.1a.914.914,0,0,1,.05-.3A.788.788,0,0,1,92.3-.452a.662.662,0,0,1,.23-.173.728.728,0,0,1,.31-.063h.12a1.3,1.3,0,0,0,.3-.04,1.032,1.032,0,0,0,.386-.22.955.955,0,0,0,.283-.383,1.068,1.068,0,0,0,.09-.39A.554.554,0,0,0,93.942-2a1.316,1.316,0,0,0-.193-.256,2.568,2.568,0,0,0-.276-.25q-.157-.123-.33-.25-.226-.173-.456-.363a3.437,3.437,0,0,1-.416-.406,1.992,1.992,0,0,1-.3-.46,1.223,1.223,0,0,1-.113-.523,1.89,1.89,0,0,1,.1-.586,3.313,3.313,0,0,1,.27-.606,3.942,3.942,0,0,1,.39-.566,4.033,4.033,0,0,1,.456-.473,2.279,2.279,0,0,1,.476-.326A1,1,0,0,1,94-7.183a.725.725,0,0,1,.516.167.7.7,0,0,1,.177.533.806.806,0,0,1-.09.356,2.105,2.105,0,0,1-.226.36,3.362,3.362,0,0,1-.306.343q-.17.167-.33.306a2.114,2.114,0,0,1-.263.207,2.006,2.006,0,0,0-.23.173,1.456,1.456,0,0,0,.173.243,2.949,2.949,0,0,0,.233.24q.127.117.256.223l.243.2q.246.2.5.42a4.556,4.556,0,0,1,.463.463,2.435,2.435,0,0,1,.343.513A1.284,1.284,0,0,1,95.587-1.861Zm2.844.02a2.481,2.481,0,0,1-.067.46.59.59,0,0,1-.14.233,2.678,2.678,0,0,1-.353.326,2.112,2.112,0,0,1-.39.26.706.706,0,0,1-.3.087,1.2,1.2,0,0,1-.406-.057A.49.49,0,0,1,96.543-.7a.681.681,0,0,1-.11-.3,3.212,3.212,0,0,1-.027-.446q0-.187,0-.313a1.214,1.214,0,0,1,.023-.22q.06-.46,1.166-.46a1.1,1.1,0,0,1,.423.067.776.776,0,0,1,.283.213A.442.442,0,0,1,98.432-1.841Zm12.623-6.888a1.9,1.9,0,0,0-.8.173,3.26,3.26,0,0,0-.723.456,5.527,5.527,0,0,0-.653.639q-.31.356-.59.723a6.815,6.815,0,0,0-.48.736,6.375,6.375,0,0,0-.41.869,6.539,6.539,0,0,0-.283.946,4.5,4.5,0,0,0-.107.966,2.144,2.144,0,0,0,.137.779,1.915,1.915,0,0,0,.363.6,1.691,1.691,0,0,0,.513.39,1.336,1.336,0,0,0,.593.14,3.411,3.411,0,0,0,.973-.14,4.464,4.464,0,0,0,.909-.383,5.445,5.445,0,0,0,.829-.57,6.367,6.367,0,0,0,.723-.7,6.627,6.627,0,0,0,.593-.786,6.9,6.9,0,0,0,.45-.809,5.274,5.274,0,0,0,.31-.913,4.323,4.323,0,0,0,.13-1.053,3.8,3.8,0,0,0-.023-.426,1.642,1.642,0,0,0-.1-.4,1.281,1.281,0,0,0-.24-.4,1.989,1.989,0,0,0-.476-.4,2.967,2.967,0,0,0-.706-.313A3.171,3.171,0,0,0,111.055-8.728Zm4.183,2.3a3.731,3.731,0,0,1-.137.939,6.827,6.827,0,0,1-.386,1.072,8.218,8.218,0,0,1-.6,1.1,7.149,7.149,0,0,1-.793,1.009,12.1,12.1,0,0,1-1.292,1.2,6.36,6.36,0,0,1-1.206.759,4.794,4.794,0,0,1-1.236.393,8.175,8.175,0,0,1-1.389.11,2.069,2.069,0,0,1-.769-.147,2.776,2.776,0,0,1-.686-.393,3.407,3.407,0,0,1-.58-.58,4.046,4.046,0,0,1-.446-.7,3.974,3.974,0,0,1-.286-.753,2.886,2.886,0,0,1-.1-.746,5.555,5.555,0,0,1,.2-1.389,8.465,8.465,0,0,1,.563-1.522,9.659,9.659,0,0,1,.883-1.482,7.534,7.534,0,0,1,1.152-1.272,5.518,5.518,0,0,1,1.379-.889,3.76,3.76,0,0,1,1.555-.333,6.682,6.682,0,0,1,.823.05,5.593,5.593,0,0,1,.763.147,4.391,4.391,0,0,1,.669.236,2.713,2.713,0,0,1,.543.32,4.74,4.74,0,0,1,.756.683,2.493,2.493,0,0,1,.416.659,2.461,2.461,0,0,1,.177.706Q115.238-6.877,115.238-6.424Zm13.2.213a.439.439,0,0,1-.013.107.6.6,0,0,1-.047.12,11.116,11.116,0,0,1-.566.993q-.326.513-.709,1t-.8.929a7.808,7.808,0,0,1-.843.769,4.407,4.407,0,0,1-.836.523,1.857,1.857,0,0,1-.786.193,2,2,0,0,1-.7-.117,1.363,1.363,0,0,1-.55-.376,1.805,1.805,0,0,1-.363-.666,3.265,3.265,0,0,1-.13-.986q-.107.173-.256.39t-.32.436q-.17.22-.353.426a3.676,3.676,0,0,1-.363.36q-.16.14-.4.336a4.421,4.421,0,0,1-.54.38,3.975,3.975,0,0,1-.669.32,2.59,2.59,0,0,1-.786.157,1.673,1.673,0,0,1-.863-.19,1.265,1.265,0,0,1-.476-.486,1.829,1.829,0,0,1-.2-.656,5.852,5.852,0,0,1-.043-.7q0-.033.01-.187t.033-.38q.023-.226.067-.51t.107-.59q.063-.306.15-.613a5.214,5.214,0,0,1,.2-.58q.06-.14.117-.256a.887.887,0,0,1,.13-.2.585.585,0,0,1,.18-.137.656.656,0,0,1,.266-.06.749.749,0,0,1,.343.07.649.649,0,0,1,.22.177.635.635,0,0,1,.117.24,1.069,1.069,0,0,1,.033.26,1.279,1.279,0,0,1-.09.353q-.09.253-.2.626t-.2.853a5.6,5.6,0,0,0-.09,1.033.894.894,0,0,0,.093.443.278.278,0,0,0,.246.163,1.328,1.328,0,0,0,.416-.067,2.307,2.307,0,0,0,.4-.173,3.284,3.284,0,0,0,.376-.243q.183-.137.35-.276a4.507,4.507,0,0,0,.436-.426q.236-.26.463-.55t.42-.57a5.739,5.739,0,0,0,.306-.486q.06-.107.14-.283t.153-.37q.073-.193.133-.37t.087-.283q.02-.093.037-.163t.033-.143q.017-.073.043-.153t.067-.18a.468.468,0,0,1,.1-.143.967.967,0,0,1,.17-.14,1.134,1.134,0,0,1,.207-.107.572.572,0,0,1,.21-.043.6.6,0,0,1,.46.17.638.638,0,0,1,.173.416q-.027.133-.09.443t-.13.693q-.067.383-.113.793a6.671,6.671,0,0,0-.047.749,2.146,2.146,0,0,0,.163.923.506.506,0,0,0,.463.336,1.078,1.078,0,0,0,.476-.123,3.066,3.066,0,0,0,.516-.33,5.7,5.7,0,0,0,.536-.476q.27-.27.533-.57t.506-.606q.243-.306.456-.58a7.9,7.9,0,0,1,.56-.663.71.71,0,0,1,.493-.263.524.524,0,0,1,.1.013.439.439,0,0,1,.123.047.352.352,0,0,1,.1.087A.215.215,0,0,1,128.441-6.21Zm4.756.393a.615.615,0,0,1-.173.45.582.582,0,0,1-.433.177.757.757,0,0,1-.323-.067,1.766,1.766,0,0,1-.263-.15q-.12-.083-.223-.15a.383.383,0,0,0-.21-.067.53.53,0,0,0-.26.08,1.762,1.762,0,0,0-.293.216,4.245,4.245,0,0,0-.316.316q-.163.18-.323.38-.113.14-.253.336t-.28.41q-.14.213-.266.433t-.22.406q-.08.167-.177.386t-.18.446q-.083.226-.15.433a2.17,2.17,0,0,0-.087.346q-.04.26-.08.48a1.652,1.652,0,0,1-.11.376.6.6,0,0,1-.187.243.519.519,0,0,1-.316.087.815.815,0,0,1-.54-.153.84.84,0,0,1-.256-.393,2.035,2.035,0,0,1-.09-.526q-.013-.286-.04-.553-.02-.173-.033-.346t-.023-.363q-.01-.19-.017-.406t-.007-.476q0-.34.027-.759t.063-.806q.037-.386.08-.686a2.805,2.805,0,0,1,.077-.4,1.537,1.537,0,0,1,.18-.343,1.652,1.652,0,0,1,.25-.286,1.243,1.243,0,0,1,.286-.2.659.659,0,0,1,.29-.073,1.03,1.03,0,0,1,.256.033.633.633,0,0,1,.233.113.615.615,0,0,1,.17.21.7.7,0,0,1,.067.323.561.561,0,0,1-.033.15q-.033.1-.087.3t-.133.48q-.073.273-.137.56t-.11.566a3.771,3.771,0,0,0-.053.5q.033-.073.12-.243l.183-.36q.1-.19.19-.366t.14-.256q.193-.326.446-.693a4.4,4.4,0,0,1,.576-.676,2.96,2.96,0,0,1,.729-.513,1.968,1.968,0,0,1,.893-.2,1.7,1.7,0,0,1,.643.11,1.269,1.269,0,0,1,.443.29,1.15,1.15,0,0,1,.256.41A1.369,1.369,0,0,1,133.2-5.817Zm12.13-3.118a11.428,11.428,0,0,0-1.149.063q-.623.063-1.229.163a.729.729,0,0,1,.2.54,1.13,1.13,0,0,1-.05.21q-.05.17-.11.37t-.117.373A2.2,2.2,0,0,1,142.8-7a1.647,1.647,0,0,0-.063.216q-.03.13-.06.283t-.057.316q-.027.163-.053.316-.04.207-.063.363t-.037.28q-.013.123-.023.236t-.017.233l.5-.21.57-.24q.29-.123.566-.246t.49-.223l.256-.133q.143-.073.293-.153l.3-.163q.153-.083.28-.163a7.288,7.288,0,0,0,.663-.456,5.488,5.488,0,0,0,.63-.563,3.374,3.374,0,0,0,.47-.61,1.154,1.154,0,0,0,.183-.583q0-.14-.34-.226a5.433,5.433,0,0,0-1.023-.17Q145.741-8.935,145.328-8.935Zm3.8.52a1.18,1.18,0,0,1-.053.3q-.053.19-.137.406t-.183.42a2.576,2.576,0,0,1-.193.336,4.108,4.108,0,0,1-.623.673,9.07,9.07,0,0,1-.936.719q-.5.34-1.033.656t-1.053.576q-.626.32-1.3.6t-1.316.49v.32q0,.087.01.28t.027.446q.017.253.033.54t.033.56q.017.273.027.506t.01.38a.667.667,0,0,1-.216.53.843.843,0,0,1-.576.19q-.959,0-.959-3.244,0-.286.017-.58t.053-.63q.037-.336.09-.723t.127-.866q.06-.4.123-.766t.143-.716q.08-.35.19-.689a7.1,7.1,0,0,1,.263-.686q-.213.06-.436.137t-.47.157a.973.973,0,0,1-.147.053.606.606,0,0,1-.16.02.617.617,0,0,1-.416-.14.459.459,0,0,1-.163-.366A.963.963,0,0,1,140.026-9a1.048,1.048,0,0,1,.363-.363,2.707,2.707,0,0,1,.639-.283,9.37,9.37,0,0,1,.949-.236q.32-.067.693-.13t.753-.113q.38-.05.739-.083t.653-.033q.353,0,.683.007t.649.033q.32.027.636.073t.643.127a2.991,2.991,0,0,1,1.172.533A1.283,1.283,0,0,1,149.132-8.415Zm7.507,2.558a.905.905,0,0,1-.083.38.69.69,0,0,1-.193.243.706.706,0,0,1-.263.127,1.2,1.2,0,0,1-.293.037.893.893,0,0,1-.24-.033.916.916,0,0,0-.246-.033,1.407,1.407,0,0,0-.523.13,4.323,4.323,0,0,0-.636.336,6.8,6.8,0,0,0-.639.46,5.01,5.01,0,0,0-.54.5q-.127.14-.293.336t-.316.41a3.069,3.069,0,0,0-.253.426.9.9,0,0,0-.1.386,3.4,3.4,0,0,0,.043.5,4.058,4.058,0,0,1,.043.606q0,.113,0,.21a.787.787,0,0,1-.03.19.433.433,0,0,1-.083.177,1.059,1.059,0,0,1-.177.187,1.071,1.071,0,0,1-.233.15.6.6,0,0,1-.26.06.5.5,0,0,1-.373-.16,1.12,1.12,0,0,1-.243-.446,3.447,3.447,0,0,1-.13-.673,8.116,8.116,0,0,1-.04-.833q0-.027,0-.18t.007-.333q0-.18.01-.346t.007-.213q0-.027.01-.173t.027-.356q.017-.21.033-.453t.033-.463q.017-.22.03-.39t.02-.223a.991.991,0,0,0,.017-.137q.01-.117.027-.27t.043-.313q.027-.16.053-.266a.839.839,0,0,1,.11-.22,1.259,1.259,0,0,1,.213-.243,1.4,1.4,0,0,1,.29-.2.725.725,0,0,1,.34-.083.754.754,0,0,1,.343.067.619.619,0,0,1,.207.163.532.532,0,0,1,.1.207.843.843,0,0,1,.027.2,1.5,1.5,0,0,1-.04.236q-.04.183-.107.4a6.216,6.216,0,0,0-.14.683q-.06.39-.093.749.366-.413.786-.836a8.226,8.226,0,0,1,.873-.766,4.944,4.944,0,0,1,.926-.56,2.256,2.256,0,0,1,.946-.216,1.1,1.1,0,0,1,.42.077,1.013,1.013,0,0,1,.316.2.9.9,0,0,1,.2.273.71.71,0,0,1,.07.3Zm4-4.19a1.288,1.288,0,0,1-.067.416,1.368,1.368,0,0,1-.193.37.894.894,0,0,1-.779.353,2.232,2.232,0,0,1-.38-.033,1.782,1.782,0,0,1-.346-.093.786.786,0,0,1-.253-.153.285.285,0,0,1-.1-.213,1.039,1.039,0,0,1,.107-.436,1.822,1.822,0,0,1,.276-.426,1.713,1.713,0,0,1,.373-.326.727.727,0,0,1,.39-.13,2.535,2.535,0,0,1,.413.03.869.869,0,0,1,.3.1.489.489,0,0,1,.19.207A.741.741,0,0,1,160.636-10.047Zm4.143,5.482a.935.935,0,0,1-.117.39,4.075,4.075,0,0,1-.32.526q-.2.29-.483.62t-.606.676q-.353.38-.766.746t-.879.706a4.405,4.405,0,0,1-.906.516,2.231,2.231,0,0,1-.846.183,1.935,1.935,0,0,1-.809-.157,1.766,1.766,0,0,1-.586-.426,2.29,2.29,0,0,1-.4-.62,4.181,4.181,0,0,1-.243-.739,5.557,5.557,0,0,1-.123-.789q-.033-.4-.033-.759,0-.14.02-.42t.057-.59q.037-.31.08-.6a3.923,3.923,0,0,1,.09-.456,1.322,1.322,0,0,1,.46-.62,1.2,1.2,0,0,1,.773-.28q.433,0,.433.52a3.387,3.387,0,0,1-.043.523q-.043.276-.1.543-.087.486-.12.876t-.033.689a5.315,5.315,0,0,0,.04.659,3.382,3.382,0,0,0,.117.57,1.286,1.286,0,0,0,.193.4.341.341,0,0,0,.276.153,2.437,2.437,0,0,0,.413-.037,1.781,1.781,0,0,0,.513-.2,7.917,7.917,0,0,0,1.219-.846q.227-.187.516-.443t.576-.526q.286-.27.54-.53a5.826,5.826,0,0,0,.4-.446q.02-.033.057-.083t.083-.1a.492.492,0,0,1,.1-.09.2.2,0,0,1,.11-.037.314.314,0,0,1,.157.03.4.4,0,0,1,.11.183A.726.726,0,0,1,164.779-4.565Zm8.273-1.545a.541.541,0,0,1-.083.27,1.706,1.706,0,0,1-.213.286,3.034,3.034,0,0,1-.3.283q-.167.14-.333.256t-.316.2q-.15.087-.25.133a2.978,2.978,0,0,1-.463.137q-.283.063-.593.107t-.6.07q-.29.027-.49.027a1.163,1.163,0,0,1-.13-.01q-.083-.01-.18-.03t-.193-.05a.586.586,0,0,1-.163-.077.883.883,0,0,1,.083.336q.01.183.01.363a2.01,2.01,0,0,1-.027.3q-.027.173-.07.353a3.309,3.309,0,0,1-.1.346,1.675,1.675,0,0,1-.127.28A4.447,4.447,0,0,1,168.16-2a3.486,3.486,0,0,1-.423.446,3.747,3.747,0,0,1-.526.386,5.983,5.983,0,0,1-.679.353,3.551,3.551,0,0,1-.826.25,5.1,5.1,0,0,1-.853.07,1.016,1.016,0,0,1-.58-.17,1.429,1.429,0,0,1-.426-.456,2.315,2.315,0,0,1-.263-.659,3.315,3.315,0,0,1-.09-.779,2.333,2.333,0,0,1,.017-.25q.017-.15.047-.3t.067-.3q.037-.147.07-.246a5.252,5.252,0,0,1,.27-.639,7.627,7.627,0,0,1,.416-.736,8.144,8.144,0,0,1,.533-.739,4.928,4.928,0,0,1,.623-.646,3.206,3.206,0,0,1,.686-.456,1.625,1.625,0,0,1,.716-.173.827.827,0,0,1,.246.03.454.454,0,0,1,.153.08.759.759,0,0,1,.11.113,1.412,1.412,0,0,0,.11.123.677.677,0,0,1,.1-.02.781.781,0,0,1,.1-.007.647.647,0,0,1,.406.16q.2.16.406.353l.19.177q.1.09.177.16a1.566,1.566,0,0,0,.143.113.2.2,0,0,0,.09.043q.173,0,.376,0t.413-.013q.21-.01.406-.03t.356-.047q.02-.007.173-.043t.37-.093l.47-.123.47-.123q.216-.057.373-.093a1.455,1.455,0,0,1,.183-.037.564.564,0,0,1,.213.033Q173.053-6.264,173.053-6.11Zm-7.687,4.443a1.646,1.646,0,0,0,.956-.286,2.426,2.426,0,0,0,.7-.763,4.048,4.048,0,0,0,.443-1.086,5.247,5.247,0,0,0,.163-1.256.945.945,0,0,0-.137-.207,1.178,1.178,0,0,0-.2-.19,1.252,1.252,0,0,0-.233-.137.547.547,0,0,0-.22-.053.628.628,0,0,0-.346.127q-.187.127-.346.26a1.907,1.907,0,0,0-.316.35,3.472,3.472,0,0,0-.29.483q-.133.266-.246.563t-.193.586a5.152,5.152,0,0,0-.123.563,3.143,3.143,0,0,0-.043.486.649.649,0,0,0,.033.207.682.682,0,0,0,.09.18.435.435,0,0,0,.137.127A.338.338,0,0,0,165.366-1.667Zm12.843-4.19a.905.905,0,0,1-.083.38.69.69,0,0,1-.193.243.706.706,0,0,1-.263.127,1.2,1.2,0,0,1-.293.037.893.893,0,0,1-.24-.033.917.917,0,0,0-.246-.033,1.407,1.407,0,0,0-.523.13,4.323,4.323,0,0,0-.636.336,6.8,6.8,0,0,0-.639.46,5.009,5.009,0,0,0-.54.5q-.127.14-.293.336t-.316.41a3.069,3.069,0,0,0-.253.426.9.9,0,0,0-.1.386,3.4,3.4,0,0,0,.043.5,4.058,4.058,0,0,1,.043.606q0,.113,0,.21a.786.786,0,0,1-.03.19.433.433,0,0,1-.083.177,1.059,1.059,0,0,1-.177.187,1.071,1.071,0,0,1-.233.15.6.6,0,0,1-.26.06.5.5,0,0,1-.373-.16,1.12,1.12,0,0,1-.243-.446,3.447,3.447,0,0,1-.13-.673,8.111,8.111,0,0,1-.04-.833q0-.027,0-.18t.007-.333q0-.18.01-.346t.007-.213q0-.027.01-.173t.027-.356q.017-.21.033-.453t.033-.463q.017-.22.03-.39t.02-.223a.993.993,0,0,0,.017-.137q.01-.117.027-.27t.043-.313q.027-.16.053-.266a.839.839,0,0,1,.11-.22,1.258,1.258,0,0,1,.213-.243,1.4,1.4,0,0,1,.29-.2.725.725,0,0,1,.34-.083.754.754,0,0,1,.343.067.618.618,0,0,1,.206.163.532.532,0,0,1,.1.207.843.843,0,0,1,.027.2,1.494,1.494,0,0,1-.04.236q-.04.183-.107.4a6.213,6.213,0,0,0-.14.683q-.06.39-.093.749.366-.413.786-.836a8.225,8.225,0,0,1,.873-.766,4.944,4.944,0,0,1,.926-.56,2.256,2.256,0,0,1,.946-.216,1.1,1.1,0,0,1,.42.077,1.013,1.013,0,0,1,.316.2.9.9,0,0,1,.2.273.71.71,0,0,1,.07.3Zm4-4.19a1.288,1.288,0,0,1-.067.416,1.369,1.369,0,0,1-.193.37.894.894,0,0,1-.779.353,2.232,2.232,0,0,1-.38-.033,1.782,1.782,0,0,1-.346-.093.786.786,0,0,1-.253-.153.285.285,0,0,1-.1-.213,1.039,1.039,0,0,1,.107-.436,1.821,1.821,0,0,1,.276-.426,1.713,1.713,0,0,1,.373-.326.727.727,0,0,1,.39-.13,2.534,2.534,0,0,1,.413.03.869.869,0,0,1,.3.1.489.489,0,0,1,.19.207A.741.741,0,0,1,182.206-10.047Zm4.143,5.482a.935.935,0,0,1-.117.39,4.075,4.075,0,0,1-.32.526q-.2.29-.483.62t-.606.676q-.353.38-.766.746t-.879.706a4.405,4.405,0,0,1-.906.516,2.231,2.231,0,0,1-.846.183,1.935,1.935,0,0,1-.809-.157,1.766,1.766,0,0,1-.586-.426,2.29,2.29,0,0,1-.4-.62,4.182,4.182,0,0,1-.243-.739,5.559,5.559,0,0,1-.123-.789q-.033-.4-.033-.759,0-.14.02-.42t.057-.59q.037-.31.08-.6a3.927,3.927,0,0,1,.09-.456,1.322,1.322,0,0,1,.46-.62,1.2,1.2,0,0,1,.773-.28q.433,0,.433.52a3.387,3.387,0,0,1-.043.523q-.043.276-.1.543-.087.486-.12.876t-.033.689a5.315,5.315,0,0,0,.04.659,3.38,3.38,0,0,0,.117.57,1.286,1.286,0,0,0,.193.4.341.341,0,0,0,.276.153,2.437,2.437,0,0,0,.413-.037,1.782,1.782,0,0,0,.513-.2,7.918,7.918,0,0,0,1.219-.846q.227-.187.516-.443t.576-.526q.286-.27.54-.53a5.826,5.826,0,0,0,.4-.446q.02-.033.057-.083t.083-.1a.493.493,0,0,1,.1-.09.2.2,0,0,1,.11-.037.314.314,0,0,1,.157.03.4.4,0,0,1,.11.183A.726.726,0,0,1,186.349-4.565Zm6.4-1.459a.4.4,0,0,1-.157.3,1.715,1.715,0,0,1-.41.26,4.133,4.133,0,0,1-.573.216q-.32.1-.643.173t-.62.127l-.5.083q-.746.107-1.242.16a2.64,2.64,0,0,0-.709.147q-.12.5-.243,1.036t-.223,1q-.1.466-.163.813a3.228,3.228,0,0,0-.063.466,1.452,1.452,0,0,0,.007.15.6.6,0,0,0,.023.117q.017.053.033.1t.037.117a1.311,1.311,0,0,1,.053.18q.027.113.05.226t.037.21a1.164,1.164,0,0,1,.013.137.787.787,0,0,1-.057.276,1.145,1.145,0,0,1-.157.283.918.918,0,0,1-.24.223.567.567,0,0,1-.313.09.6.6,0,0,1-.33-.1,1.073,1.073,0,0,1-.27-.253,1.831,1.831,0,0,1-.21-.353,3.256,3.256,0,0,1-.15-.39,2.975,2.975,0,0,1-.09-.363,1.683,1.683,0,0,1-.03-.283q0-.113.023-.353a2.959,2.959,0,0,1,.09-.486q.207-.779.32-1.282t.167-.806q.053-.3.07-.443t.023-.193q-.087,0-.246.01t-.33.027q-.17.017-.316.027t-.2.01a3.174,3.174,0,0,1-.593-.047.788.788,0,0,1-.39-.183.759.759,0,0,1-.213-.386,2.759,2.759,0,0,1-.063-.656,5.212,5.212,0,0,0,.556-.037,3.289,3.289,0,0,1,.423-.03q.053,0,.27-.017l.476-.037q.26-.02.5-.043t.35-.037q.013-.073.053-.233t.09-.353q.05-.193.1-.386t.093-.333q.033-.1.087-.33t.113-.476q.06-.246.11-.456t.063-.27a4.99,4.99,0,0,1,.167-.523,2.078,2.078,0,0,1,.21-.416,1.051,1.051,0,0,1,.256-.273.5.5,0,0,1,.293-.1.671.671,0,0,1,.52.177.778.778,0,0,1,.16.536,1.981,1.981,0,0,1-.04.373,3.684,3.684,0,0,1-.113.433q-.147.466-.223.779t-.123.55q-.047.236-.073.436t-.073.44a.623.623,0,0,0-.01.1q0,.077,0,.11a10.345,10.345,0,0,0,1.122-.06q.55-.06,1.116-.113.32-.033.563-.073l.45-.073q.207-.033.4-.057a3.6,3.6,0,0,1,.423-.023.882.882,0,0,1,.167.017.459.459,0,0,1,.157.06.34.34,0,0,1,.117.127A.441.441,0,0,1,192.751-6.024ZM198-5.9a1.761,1.761,0,0,1-.08.356q-.073.243-.183.57t-.253.716q-.143.39-.286.8t-.283.829q-.14.416-.246.789-.007.02-.057.183t-.13.42l-.18.58q-.1.323-.2.663t-.206.663q-.1.323-.183.583t-.133.43l-.06.19q-.053.18-.117.42a2.144,2.144,0,0,1-.173.45,1.132,1.132,0,0,1-.29.356.725.725,0,0,1-.473.147.64.64,0,0,1-.3-.067.729.729,0,0,1-.22-.17.776.776,0,0,1-.14-.233.711.711,0,0,1-.05-.256,1.432,1.432,0,0,1,.073-.39q.073-.243.183-.533t.24-.613q.13-.323.243-.636l.05-.13q.05-.13.13-.343t.177-.48q.1-.266.2-.533l.19-.506.15-.4q-.153.127-.353.273t-.423.3q-.223.15-.47.286t-.49.243a3.357,3.357,0,0,1-.48.17,1.74,1.74,0,0,1-.45.063,2.025,2.025,0,0,1-.813-.153,1.924,1.924,0,0,1-.593-.39,1.658,1.658,0,0,1-.363-.52,1.373,1.373,0,0,1-.123-.55,3.471,3.471,0,0,1,.043-.493q.043-.293.12-.63t.183-.7q.107-.363.226-.7t.25-.63a3.067,3.067,0,0,1,.263-.483,1.488,1.488,0,0,1,.4-.42.753.753,0,0,1,.41-.12.808.808,0,0,1,.336.06.488.488,0,0,1,.2.167.64.64,0,0,1,.1.24,1.459,1.459,0,0,1,.027.286.729.729,0,0,1-.077.266q-.077.173-.19.413-.1.207-.233.49a6.074,6.074,0,0,0-.246.613,6.391,6.391,0,0,0-.193.689,3.338,3.338,0,0,0-.08.726.339.339,0,0,0,.067.213.508.508,0,0,0,.157.137.741.741,0,0,0,.187.073.7.7,0,0,0,.157.023,1.431,1.431,0,0,0,.5-.1,3.712,3.712,0,0,0,.516-.24q.256-.143.5-.306t.463-.3a4.369,4.369,0,0,0,.4-.29,2.065,2.065,0,0,0,.38-.4,1.791,1.791,0,0,0,.177-.356q.1-.256.217-.583t.223-.669q.11-.343.19-.623a1.367,1.367,0,0,1,.157-.35,1.166,1.166,0,0,1,.206-.246.855.855,0,0,1,.226-.147.553.553,0,0,1,.217-.05,1.334,1.334,0,0,1,.363.04.392.392,0,0,1,.21.137.554.554,0,0,1,.1.26,2.919,2.919,0,0,1,.023.4Z" transform="translate(125 108)" fill="#fff"/>
      <path id="Circle" d="M19,0A19,19,0,1,1,0,19,19,19,0,0,1,19,0Z" transform="translate(286 50)" fill="#f6fffb"/>
      <path id="_1" data-name="1" d="M-6.048-17.6A19.9,19.9,0,0,0-2.5-19.408,14.55,14.55,0,0,0,.672-22.176H2.784V0H-.192V-18.048a8.606,8.606,0,0,1-.944.736,13.107,13.107,0,0,1-1.216.736q-.656.352-1.376.672t-1.392.544Z" transform="translate(304 81)"/>
    </g>
  </g>
</svg>
